HIERARCHY
ROOT Hips
{
  OFFSET 179.979 97.3047 303.174
  CHANNELS 6 Xposition Yposition Zposition Zrotation Xrotation Yrotation
  JOINT Spine
  {
    OFFSET 0.000859786 9.92346 -1.22733
    CHANNELS 3 Zrotation Xrotation Yrotation
    JOINT Spine1
    {
      OFFSET 0 11.732 0
      CHANNELS 3 Zrotation Xrotation Yrotation
      JOINT Spine2
      {
        OFFSET 0 13.4588 0
        CHANNELS 3 Zrotation Xrotation Yrotation
        JOINT Neck
        {
          OFFSET 2.54812e-05 15.0278 0.877907
          CHANNELS 3 Zrotation Xrotation Yrotation
          JOINT Head
          {
            OFFSET 0 10.3218 3.14243
            CHANNELS 3 Zrotation Xrotation Yrotation
            End Site
            {
              OFFSET 0 0 0
            }
          }
        }
        JOINT LeftShoulder
        {
          OFFSET 6.10582 9.10629 0.757062
          CHANNELS 3 Zrotation Xrotation Yrotation
          JOINT LeftArm
          {
            OFFSET 0 12.9223 0
            CHANNELS 3 Zrotation Xrotation Yrotation
            JOINT LeftForeArm
            {
              OFFSET 0 27.4047 0
              CHANNELS 3 Zrotation Xrotation Yrotation
              JOINT LeftHand
              {
                OFFSET -1.28204e-05 27.6145 0
                CHANNELS 3 Zrotation Xrotation Yrotation
                End Site
                {
                  OFFSET 0 0 0
                }
              }
            }
          }
        }
        JOINT RightShoulder
        {
          OFFSET -6.1057 9.10638 0.757076
          CHANNELS 3 Zrotation Xrotation Yrotation
          JOINT RightArm
          {
            OFFSET 0 12.9223 0
            CHANNELS 3 Zrotation Xrotation Yrotation
            JOINT RightForeArm
            {
              OFFSET 0 27.4047 0
              CHANNELS 3 Zrotation Xrotation Yrotation
              JOINT RightHand
              {
                OFFSET 1.28428e-05 27.6145 1.44975e-05
                CHANNELS 3 Zrotation Xrotation Yrotation
                End Site
                {
                  OFFSET 0 0 0
                }
              }
            }
          }
        }
      }
    }
  }
  JOINT LeftUpLeg
  {
    OFFSET 9.12387 -6.65719 -0.0554031
    CHANNELS 3 Zrotation Xrotation Yrotation
    JOINT LeftLeg
    {
      OFFSET 0 40.5994 0
      CHANNELS 3 Zrotation Xrotation Yrotation
      JOINT LeftFoot
      {
        OFFSET 0 42.099 0
        CHANNELS 3 Zrotation Xrotation Yrotation
        JOINT LeftToeBase
        {
          OFFSET 0 15.7216 0
          CHANNELS 3 Zrotation Xrotation Yrotation
          End Site
          {
            OFFSET 0 0 0
          }
        }
      }
    }
  }
  JOINT RightUpLeg
  {
    OFFSET -9.12503 -6.6556 -0.0553527
    CHANNELS 3 Zrotation Xrotation Yrotation
    JOINT RightLeg
    {
      OFFSET 0 40.5994 0
      CHANNELS 3 Zrotation Xrotation Yrotation
      JOINT RightFoot
      {
        OFFSET 0 42.099 0
        CHANNELS 3 Zrotation Xrotation Yrotation
        JOINT RightToeBase
        {
          OFFSET 0 15.7216 0
          CHANNELS 3 Zrotation Xrotation Yrotation
          End Site
          {
            OFFSET 0 0 0
          }
        }
      }
    }
  }
}
MOTION
Frames:	13
Frame Time:	0.0333333
-324.119 87.0413 -271.537 -11.183 -4.59316 3.31669 1.20894 -4.75549 0.850653 2.38376 4.44945 1.3631 2.225 11.0421 1.38582 2.90461 -0.934595 -4.58833 -8.25984 -20.3835 -3.49717 -93.4134 -13.4681 90.4399 -39.1859 33.2236 61.2825 120.064 3.15719 2.23683 5.77845 -17.7868 5.95766 101.068 -10.9116 -91.062 0.686855 51.973 -35.1531 -109.155 -0.383607 0.0706223 -16.7106 -5.2864 -17.8148 177.54 46.072 -10.081 1.53861 -37.3163 -1.30557 11.2021 59.635 -2.43961 -0.96527 26.367 -3.60229 177.712 20.6052 15.4646 -65.2945 -86.3472 -62.7813 5.63316 53.466 4.21386 0.963538 26.3682 3.55537 
-326.5 85.1769 -263.326 -11.9531 -7.40056 7.08015 1.18793 -4.57863 0.229326 2.36731 4.79041 0.121364 2.35432 11.3849 0.1245 2.62809 1.59248 -4.85346 -7.39402 -21.1675 -3.91535 -93.2305 -13.8872 90.3857 -40.8014 34.5646 61.3896 123.072 3.10792 2.34402 6.75302 -18.1247 6.98681 101.138 -10.187 -91.2051 0.318118 51.42 -37.8904 -112.63 -0.457917 0.022136 -16.9566 -4.03714 -18.441 176.762 41.0189 -14.4736 0.962146 -26.3189 -2.56431 3.84823 48.1954 -2.3941 -0.96527 26.367 -3.60229 179.669 25.8178 12.7517 -156.594 -81.1621 -148.798 -4.6049 56.5683 10.4363 0.963538 26.3682 3.55537 
-329 82.4447 -255.57 -13.0367 -10.4972 11.6354 1.31548 -4.34981 -0.568052 2.66136 5.22854 -1.51732 2.84121 11.8207 -1.54255 2.99637 4.66153 -5.26137 -7.097 -21.9453 -4.25322 -92.4794 -14.2324 90.3384 -39.6037 39.714 60.9521 124.021 3.30654 2.43027 7.04951 -17.6241 7.09347 100.245 -10.707 -91.0695 2.80259 52.2196 -38.8741 -112.774 -0.404854 0.0183092 -16.0056 -3.6592 -17.112 174.627 40.0315 -18.658 1.17153 -31.3827 1.03336 24.8337 45.2534 8.42316 -0.96527 26.367 -3.60229 -178.869 32.8999 11.1386 -163.517 -75.7811 -151.072 -18.2601 61.7751 18.9329 0.963538 26.3682 3.55537 
-331.722 78.7868 -248.034 -11.9706 -13.3396 16.6003 0.911724 -3.99106 -1.23684 1.89371 5.9429 -2.74763 2.21921 12.5296 -2.79875 5.13093 7.75303 -6.52442 -8.09526 -24.6561 -4.97456 -91.4362 -13.9777 90.3594 -34.5109 47.2712 58.6827 121.628 3.24867 2.2965 7.31018 -16.925 9.75429 99.5958 -12.1674 -90.7809 6.23576 53.048 -38.915 -109.802 -0.571028 0.0670981 -16.1855 -5.71154 -15.7697 172.193 39.717 -20.2183 5.2594 -45.863 0.0306832 57.6318 67.6961 -10.7575 -0.96527 26.367 -3.60229 179.379 40.5445 8.53286 -162.165 -75.7218 -146.282 -32.173 66.315 29.8479 0.963538 26.3682 3.55537 
-334.354 75.9482 -240.886 -10.055 -11.8243 27.4208 -0.105793 -3.97781 -2.48668 -0.0828625 5.99557 -4.95227 0.502537 12.5649 -5.04632 9.01133 0.569411 -8.54279 -9.99782 -20.2657 -5.67614 -94.1414 -13.322 90.4684 -17.5948 53.9382 46.7003 113.68 2.48157 1.98295 9.13462 -16.4414 16.1136 105.143 -17.6296 -89.639 3.9341 50.2404 -33.5664 -104.441 -0.835917 0.150059 -15.4772 -7.65477 -14.3341 159.332 47.1434 5.64843 0.827387 -65.0441 -10.4505 67.4836 68.2999 -27.7121 -0.96527 26.367 -3.60229 169.161 48.02 11.5368 -136.929 -83.5036 -121.42 -36.7171 70.2903 35.523 0.963538 26.3682 3.55537 
-336.379 74.6573 -234.636 -11.3942 -14.8467 34.8261 0.345414 -3.13079 -2.88585 0.89042 7.66474 -5.89859 1.59176 14.2234 -6.03103 10.0205 -2.06652 -9.96165 -9.51528 -20.9661 -7.1034 -93.6782 -9.18781 90.9831 -3.44722 63.377 34.2487 101.762 0.96541 1.50504 11.6697 -15.6384 28.4277 106.195 -17.6367 -89.6099 8.55365 50.9583 -31.5017 -98.7856 -1.25146 0.235691 -14.213 -7.741 -15.4664 159.174 48.3481 10.9188 7.36902 -78.062 -3.37523 76.1136 72.5651 -41.2121 -0.96527 26.367 -3.60229 169.665 47.331 6.10919 -22.6158 -75.0017 -12.4763 -20.0341 72.0473 22.308 0.963538 26.3682 3.55537 
-338.072 73.377 -228.527 -13.3887 -18.8981 38.3102 1.24581 -2.45918 -2.81899 2.7427 8.9555 -6.06689 3.46804 15.5121 -6.2192 10.7111 -2.15961 -10.2178 -10.714 -22.1366 -7.26785 -92.255 -7.92117 91.0516 5.25348 71.9521 26.3687 94.6908 -0.397371 1.21567 11.5927 -12.878 35.29 104.812 -16.1216 -90.0007 12.6872 50.4112 -33.1966 -97.2019 -1.16164 0.251525 -14.8096 -8.23552 -14.7207 168.025 48.0755 4.3509 39.4658 -85.8961 27.3023 108.378 74.1524 -73.9697 -0.96527 26.367 -3.60229 175.11 43.0883 -4.87859 -11.4891 -54.1923 -8.93373 4.46961 64.6256 1.00161 0.963538 26.3682 3.55537 
-339.39 71.909 -222.247 -15.3757 -20.4752 41.4854 1.6592 -2.81329 -2.92537 3.5619 8.21794 -6.39841 4.3239 14.7703 -6.5485 10.7311 0.612652 -10.1078 -11.3297 -21.4459 -6.85712 -92.9135 -9.16606 90.946 7.23588 71.6162 27.5851 95.8818 0.105134 1.27203 9.6425 -12.1871 33.2271 103.891 -14.6333 -90.3443 15.1317 47.9112 -37.1477 -99.7279 -0.695876 0.207129 -15.1351 -8.60563 -13.4342 176.88 50.3208 -2.81807 145.263 -83.7608 132.83 127.038 72.8648 -92.9727 -0.96527 26.367 -3.60229 177.268 40.0245 -17.404 -5.12931 -41.8236 -5.66395 10.4986 58.0842 -1.7548 0.963538 26.3682 3.55537 
-341.286 69.6902 -214.929 -13.3516 -19.8977 51.1043 0.822018 -3.24602 -3.73861 1.89941 7.39186 -7.75439 2.8185 13.9246 -7.92334 11.5017 4.17085 -10.8853 -10.8521 -22.3337 -7.28266 -92.4044 -9.81007 90.8464 7.41208 67.7312 31.1367 99.9038 0.884471 1.43657 7.67079 -9.80356 27.5151 104.06 -14.708 -90.328 16.9419 46.5875 -41.7705 -102.947 -0.777906 0.167498 -15.6946 -9.17841 -13.2997 176.441 56.6111 -0.561639 167.913 -72.8496 157.927 102.346 75.5988 -70.3101 -0.96527 26.367 -3.60229 169.518 35.4018 -14.3849 -4.80194 -44.7641 -4.83295 53.0219 74.2437 -14.7906 0.963538 26.3682 3.55537 
-343.129 67.663 -208.751 -10.211 -20.3922 61.1891 -0.0232051 -3.00828 -3.84945 0.221642 7.92541 -7.71948 1.13895 14.4586 -7.89708 11.8723 5.5074 -12.6885 -8.86253 -21.4572 -8.91014 -90.6527 -8.17351 90.9167 5.75031 65.9692 34.0058 103.465 1.35324 1.57769 8.14443 -8.44413 26.0204 104.648 -17.327 -89.7224 16.7272 47.0001 -44.5973 -104.832 -0.984825 0.149031 -16.539 -8.70789 -12.7698 175.084 64.8198 3.55197 172.818 -62.9166 166.285 44.5916 70.4712 -20.377 -0.96527 26.367 -3.60229 165.981 28.6264 -3.98907 -11.3766 -47.4552 -14.2322 142.339 74.9727 -95.5743 0.963538 26.3682 3.55537 
-344.232 67.0669 -204.462 -9.54252 -21.6623 67.3925 -0.116374 -2.67631 -3.43263 0.0245688 8.596 -6.85718 0.842671 15.1421 -7.0251 12.5389 3.56127 -13.5954 -7.99586 -20.5459 -9.73697 -90.9939 -8.40899 90.922 2.50855 65.1247 36.1835 105.639 1.74821 1.66806 9.09433 -8.65399 24.3414 107.632 -17.3842 -89.6385 11.0755 45.852 -40.5235 -103.593 -1.04352 0.16795 -17.1243 -10.957 -12.937 -179.366 73.0576 -0.300666 173.646 -56.9774 166.727 26.2127 64.2425 -12.5277 -0.96527 26.367 -3.60229 167.111 28.6165 -4.56495 -8.41262 -55.6466 -12.4937 161.227 70.9887 -113.758 0.963538 26.3682 3.55537 
-344.555 67.2348 -201.681 -9.27515 -20.8988 71.3841 -0.47207 -2.60891 -2.854 -0.735061 8.74894 -5.58129 -0.06777 15.3113 -5.72028 11.6737 2.21814 -13.7403 -6.84919 -20.7456 -10.3187 -92.105 -9.80125 90.8337 -4.59188 63.9849 42.1832 106.066 1.64487 1.68034 9.65671 -9.9064 24.1205 107.001 -15.2588 -90.1946 8.09935 47.2698 -35.7218 -100.351 -0.689258 0.19837 -16.4664 -9.75179 -15.7473 -167.026 76.9044 -16.673 173.653 -56.3893 167.147 32.2003 69.2461 -17.2316 -0.96527 26.367 -3.60229 164.4 29.7599 3.6855 -10.7461 -61.0426 -16.2663 162.022 69.498 -116.161 0.963538 26.3682 3.55537 
-343.741 68.51 -200.492 -11.309 -21.5781 77.3442 -0.253463 -2.95418 -2.38988 -0.343466 8.04806 -4.71763 0.219197 14.6196 -4.82798 10.8147 1.39004 -14.863 -5.80711 -20.2178 -11.794 -91.1594 -10.5767 90.7103 -9.33437 62.2415 47.6552 106.845 1.77525 1.71246 10.5126 -10.0933 26.1724 105.584 -15.1767 -90.2189 9.29167 48.5318 -35.382 -99.6306 -0.988183 0.217035 -17.3067 -10.0906 -17.5625 -161.83 78.9105 -26.443 172.898 -61.9108 163.208 38.6355 69.8274 -24.6643 -0.96527 26.367 -3.60229 163.065 27.296 13.8529 -13.3262 -59.2468 -18.6594 160.398 69.7173 -114.853 0.963538 26.3682 3.55537 
